<svg width="45" height="45" viewBox="0 0 45 45" fill="none" xmlns="http://www.w3.org/2000/svg">
<g clip-path="url(#clip0_8_39)">
<path d="M41.6625 24.9C41.5005 24.8027 41.3702 24.6607 41.287 24.4911C41.2038 24.3214 41.1715 24.1314 41.1937 23.9438C41.2312 23.475 41.25 22.9875 41.25 22.5C41.25 22.0125 41.2312 21.525 41.1937 21.0562C41.1715 20.8686 41.2038 20.6786 41.287 20.5089C41.3702 20.3393 41.5005 20.1973 41.6625 20.1C42.743 19.4749 43.5314 18.4467 43.8548 17.2411C44.1782 16.0354 44.0101 14.7507 43.3875 13.6687L40.5937 8.83125C40.283 8.29494 39.8695 7.82525 39.3768 7.44909C38.8842 7.07293 38.3222 6.7977 37.7229 6.63919C37.1237 6.48067 36.4991 6.44199 35.8849 6.52536C35.2707 6.60872 34.679 6.8125 34.1437 7.125C33.9891 7.20838 33.8143 7.24726 33.6389 7.23733C33.4635 7.2274 33.2943 7.16905 33.15 7.06875C32.3202 6.50395 31.449 6.00253 30.5437 5.56875C30.3796 5.49278 30.2408 5.37092 30.1444 5.21788C30.0479 5.06484 29.9977 4.88715 30 4.70625C29.996 3.45929 29.4989 2.26454 28.6172 1.3828C27.7355 0.501061 26.5407 0.00395549 25.2937 0L19.7062 0C18.4564 0.00495994 17.2593 0.50496 16.3773 1.39053C15.4952 2.2761 15 3.47509 15 4.725C15.0003 4.90071 14.9513 5.07297 14.8585 5.22216C14.7657 5.37134 14.6328 5.49144 14.475 5.56875C13.5616 5.99829 12.6838 6.49988 11.85 7.06875C11.7026 7.17134 11.5287 7.22941 11.3492 7.23606C11.1698 7.24271 10.9921 7.19765 10.8375 7.10625C9.75557 6.48363 8.47086 6.31558 7.26519 6.63896C6.05952 6.96235 5.03136 7.75076 4.40625 8.83125L1.6125 13.6687C0.989873 14.7507 0.821821 16.0354 1.14521 17.2411C1.46859 18.4467 2.25701 19.4749 3.3375 20.1C3.49944 20.1973 3.62983 20.3393 3.71299 20.5089C3.79615 20.6786 3.82853 20.8686 3.80625 21.0562C3.76875 21.525 3.75 22.0125 3.75 22.5C3.75 22.9875 3.76875 23.475 3.80625 23.9438C3.82853 24.1314 3.79615 24.3214 3.71299 24.4911C3.62983 24.6607 3.49944 24.8027 3.3375 24.9C2.25701 25.5251 1.46859 26.5533 1.14521 27.7589C0.821821 28.9646 0.989873 30.2493 1.6125 31.3312L4.40625 36.1688C4.71699 36.7051 5.13053 37.1748 5.62317 37.5509C6.1158 37.9271 6.67783 38.2023 7.27705 38.3608C7.87626 38.5193 8.50087 38.558 9.11507 38.4746C9.72926 38.3913 10.321 38.1875 10.8562 37.875C11.0095 37.787 11.185 37.7455 11.3615 37.7555C11.5379 37.7654 11.7076 37.8265 11.85 37.9312C12.6798 38.496 13.551 38.9975 14.4562 39.4313C14.6204 39.5072 14.7591 39.6291 14.8556 39.7821C14.9521 39.9352 15.0022 40.1128 15 40.2938C15.004 41.5407 15.5011 42.7355 16.3828 43.6172C17.2645 44.4989 18.4593 44.996 19.7062 45H25.2937C26.5436 44.995 27.7407 44.495 28.6227 43.6095C29.5048 42.7239 30 41.5249 30 40.275C29.9996 40.0993 30.0487 39.927 30.1415 39.7778C30.2343 39.6287 30.3672 39.5086 30.525 39.4313C31.4384 39.0017 32.3162 38.5001 33.15 37.9312C33.2974 37.8287 33.4712 37.7706 33.6507 37.7639C33.8302 37.7573 34.0079 37.8023 34.1625 37.8937C35.2448 38.5149 36.529 38.6821 37.7342 38.3588C38.9394 38.0355 39.9676 37.2481 40.5937 36.1688L43.3875 31.3312C44.0101 30.2493 44.1782 28.9646 43.8548 27.7589C43.5314 26.5533 42.743 25.5251 41.6625 24.9ZM22.5 33.75C20.275 33.75 18.0999 33.0902 16.2498 31.854C14.3998 30.6179 12.9578 28.8609 12.1064 26.8052C11.2549 24.7495 11.0321 22.4875 11.4662 20.3052C11.9002 18.1229 12.9717 16.1184 14.545 14.545C16.1184 12.9717 18.1229 11.9002 20.3052 11.4662C22.4875 11.0321 24.7495 11.2549 26.8052 12.1064C28.8609 12.9578 30.6179 14.3998 31.854 16.2498C33.0902 18.0999 33.75 20.275 33.75 22.5C33.747 25.4828 32.5608 28.3425 30.4517 30.4517C28.3425 32.5608 25.4828 33.747 22.5 33.75Z" fill="#B0B3AB"/>
<path d="M22.5 30C26.6421 30 30 26.6421 30 22.5C30 18.3579 26.6421 15 22.5 15C18.3579 15 15 18.3579 15 22.5C15 26.6421 18.3579 30 22.5 30Z" fill="#B0B3AB"/>
</g>
<defs>
<clipPath id="clip0_8_39">
<rect width="45" height="45" fill="white"/>
</clipPath>
</defs>
</svg>
